<?xml version="1.0" standalone="no"?>
<!DOCTYPE svg PUBLIC "-//W3C//DTD SVG 20010904//EN"
 "http://www.w3.org/TR/2001/REC-SVG-20010904/DTD/svg10.dtd">
<svg version="1.0" xmlns="http://www.w3.org/2000/svg"
 width="512.000000pt" height="512.000000pt" viewBox="0 0 512.000000 512.000000"
 preserveAspectRatio="xMidYMid meet">
<metadata>
Created by potrace 1.14, written by Peter Selinger 2001-2017
</metadata>
<g transform="translate(0.000000,512.000000) scale(0.100000,-0.100000)"
fill="#000000" stroke="none">
<path d="M2208 4699 c-45 -10 -104 -42 -141 -77 -43 -41 -62 -86 -70 -167 -1
-11 -6 -23 -12 -27 -7 -5 -6 -8 0 -8 6 0 10 -12 9 -27 -1 -16 1 -32 5 -38 3
-5 7 -19 8 -30 2 -11 8 -31 13 -45 5 -14 11 -36 13 -50 2 -14 7 -32 10 -40 6
-12 22 -77 42 -162 2 -10 15 -59 29 -110 50 -188 88 -334 93 -358 2 -14 8 -27
14 -28 5 -2 7 -8 4 -13 -3 -5 0 -28 7 -51 7 -24 12 -47 13 -53 0 -5 3 -14 6
-20 4 -5 10 -28 14 -50 4 -22 11 -46 17 -52 6 -7 8 -20 4 -28 -3 -8 -1 -15 5
-15 6 0 8 -4 5 -9 -3 -5 1 -27 9 -50 8 -23 12 -41 8 -41 -3 0 0 -6 6 -14 6 -8
11 -18 10 -22 -1 -5 0 -11 1 -14 1 -3 3 -12 5 -20 2 -8 7 -26 10 -40 3 -14 8
-32 10 -40 2 -8 4 -15 5 -15 1 0 3 -7 5 -15 1 -8 13 -53 25 -100 13 -47 23
-92 24 -100 1 -9 5 -20 8 -26 4 -6 9 -21 12 -35 3 -13 10 -44 17 -69 22 -88
22 -88 -10 -95 -16 -3 -54 -21 -84 -39 -90 -54 -83 -62 -82 103 0 80 5 152 9
160 6 9 5 12 0 8 -6 -3 -10 19 -9 56 0 34 -2 67 -6 72 -3 6 -12 27 -19 49 -18
55 -94 130 -155 153 -73 28 -158 24 -229 -11 -30 -15 -64 -37 -73 -50 -10 -12
-38 -36 -63 -53 -52 -37 -100 -80 -100 -92 0 -4 -9 -18 -20 -31 -11 -13 -20
-32 -20 -42 0 -11 -4 -17 -8 -14 -9 5 -11 -14 -14 -118 l-1 -69 -25 49 c-14
27 -30 52 -36 56 -6 4 -8 8 -4 8 11 0 -42 50 -52 50 -6 0 -10 4 -10 8 0 5 -19
15 -42 22 -24 8 -49 18 -55 23 -9 6 -13 5 -13 -2 0 -7 -5 -9 -12 -4 -18 11
-50 11 -72 0 -12 -6 -16 -6 -12 2 5 7 -3 7 -26 0 -54 -18 -108 -46 -101 -53 3
-3 2 -6 -4 -6 -12 0 -68 -50 -56 -50 4 0 4 -4 -2 -8 -16 -11 -35 -50 -35 -70
0 -10 -3 -22 -7 -26 -9 -9 -11 -776 -2 -776 3 0 5 -10 3 -23 -1 -12 -3 -22 -4
-22 -1 0 -3 -26 -3 -58 -1 -32 2 -57 8 -57 6 0 5 -4 -2 -8 -7 -5 -9 -13 -3
-21 4 -8 4 -24 0 -37 -5 -12 -6 -25 -3 -28 4 -4 7 -25 8 -49 0 -23 3 -46 6
-52 3 -5 5 -22 4 -38 0 -15 2 -27 5 -27 3 0 6 -10 6 -22 1 -32 10 -73 29 -138
9 -30 17 -62 19 -70 2 -8 7 -24 11 -35 4 -11 13 -36 20 -56 8 -20 11 -39 8
-43 -4 -3 -1 -6 5 -6 6 0 14 -10 17 -22 23 -76 153 -295 237 -402 28 -34 203
-212 241 -243 68 -57 175 -131 181 -126 3 4 6 1 6 -5 0 -7 5 -12 11 -12 6 0
17 -7 26 -15 8 -8 19 -13 24 -10 5 4 9 2 9 -3 0 -4 39 -27 88 -50 241 -115
443 -163 702 -167 175 -3 251 5 395 41 68 17 185 59 230 83 17 8 32 16 35 16
22 6 80 37 85 45 4 6 11 8 16 5 5 -4 9 -3 9 2 0 4 21 19 48 33 26 13 53 33 60
42 7 10 17 16 22 13 4 -3 11 2 14 11 4 9 9 15 12 12 3 -3 22 8 42 26 59 49
262 256 262 266 0 6 8 19 18 29 32 36 42 50 54 76 6 14 15 25 20 25 5 0 6 5 3
10 -3 6 -3 10 2 10 4 0 13 10 19 23 6 12 24 49 42 82 17 33 32 67 34 75 2 8 7
18 11 21 4 3 10 18 13 34 3 15 9 35 14 44 16 31 50 184 56 255 8 95 8 121 -1
186 -4 30 -7 61 -8 68 0 6 -4 12 -9 12 -5 0 -6 4 -3 10 3 5 -1 35 -10 67 -9
32 -17 65 -19 73 -2 8 -7 29 -11 45 -4 17 -10 35 -14 40 -3 6 -7 21 -9 35 -2
13 -6 27 -10 30 -4 3 -9 16 -11 30 -1 14 -7 33 -12 42 -5 9 -10 28 -11 42 -1
15 -6 26 -10 26 -4 0 -8 8 -8 18 0 11 -9 44 -19 75 -11 30 -17 58 -14 61 4 3
1 6 -6 6 -7 0 -10 4 -6 10 3 5 2 17 -3 27 -5 10 -21 43 -36 74 -43 89 -104
161 -180 214 -51 35 -53 38 -46 68 5 18 11 46 14 62 3 17 8 46 11 65 4 19 8
44 10 55 2 11 7 34 10 50 8 42 56 305 61 333 8 43 12 68 23 127 6 33 14 74 17
90 4 27 48 261 58 311 3 12 7 39 10 60 4 22 8 46 11 54 2 8 6 31 9 50 3 19 8
46 11 60 12 54 18 96 17 113 0 9 3 17 7 17 4 0 7 10 8 23 0 12 4 40 8 62 4 22
9 49 10 60 1 11 4 21 5 23 1 1 4 10 5 20 1 9 6 37 11 62 4 25 7 50 5 55 -3 9
-6 26 -14 78 -5 31 -38 97 -48 97 -5 0 -9 7 -9 17 0 9 -3 13 -7 10 -3 -4 -12
2 -20 12 -18 26 -113 61 -171 63 -61 3 -142 -11 -142 -23 0 -6 -4 -8 -8 -5 -5
3 -20 -6 -35 -20 -14 -13 -32 -24 -38 -24 -7 0 -9 -3 -6 -7 4 -3 -1 -16 -11
-27 -22 -24 -52 -97 -59 -141 -2 -16 -10 -61 -18 -100 -8 -38 -16 -83 -19
-100 -3 -16 -8 -39 -10 -50 -2 -11 -27 -137 -55 -280 -63 -326 -59 -305 -66
-335 -3 -14 -8 -38 -10 -55 -6 -31 -18 -94 -21 -107 -1 -5 -2 -9 -3 -10 -2 -2
-4 -16 -6 -32 -2 -16 -9 -52 -15 -80 -6 -28 -13 -67 -16 -86 -3 -19 -8 -38
-11 -43 -2 -4 -6 -24 -9 -45 -4 -39 -11 -77 -14 -77 -1 0 -4 -11 -5 -25 -8
-59 -24 -92 -39 -82 -6 4 -29 8 -51 8 -22 1 -40 3 -40 4 0 1 -15 3 -32 4 -18
1 -35 4 -37 7 -3 3 -62 220 -82 299 -2 8 -10 40 -19 70 -9 30 -18 66 -21 80
-9 37 -10 44 -17 60 -4 8 -9 26 -11 40 -3 14 -5 25 -6 25 -2 0 -7 19 -15 57
-3 15 -9 38 -14 50 -5 13 -9 26 -10 31 0 4 -1 8 -2 10 -2 7 -11 44 -13 57 -2
8 -7 23 -11 33 -4 10 -9 28 -10 40 -1 12 -3 22 -4 22 -2 0 -4 11 -7 25 -2 14
-7 32 -11 40 -5 13 -9 29 -17 65 -1 6 -5 16 -10 23 -4 7 -5 16 -2 19 3 3 1 12
-6 20 -6 7 -8 16 -5 20 4 3 3 11 -2 17 -6 6 -11 23 -13 36 -2 14 -7 30 -10 36
-4 6 -10 26 -13 45 -3 19 -10 48 -15 64 -5 17 -21 75 -35 130 -57 219 -67 252
-90 297 -32 64 -67 100 -122 128 -50 25 -131 33 -195 19z"/>
</g>
</svg>
